<svg xmlns="http://www.w3.org/2000/svg" fill="#d4d4d8" width="1200" height="1200" viewBox="0 0 900 900" preserveAspectRatio="xMidYMid meet"><path d="M344.1 17.9c-1.2 1.6-2.1 4-2.1 5.4 0 4 4.7 14 13.7 29.3C363.8 66.3 365 69 363 69c-.5 0-6.2-2-12.7-4.4-42.7-15.8-68.1-18-116.1-10.1-31.3 5.2-58 14.8-69 24.9-3.4 3.1-4.2 4.5-4.2 7.3 0 2.9.5 3.6 3.3 4.7 1.7.8 6.9 1.9 11.5 2.5 10 1.5 19 4.3 25.8 8.2 8.4 4.8 17 14.4 20.4 22.8 1.6 4.1 2.3 3.5-16 15.3-22.4 14.5-41.4 29.6-53.3 42-23.4 24.8-39.7 48.7-39.7 58.4 0 2.8.4 3.5 2.7 4 3.9 1 14.5-1.1 23.6-4.6 8.1-3.1 16.2-4 16.9-1.8.3.7-1.1 5.1-2.9 9.8-7.2 17.9-10.5 29.7-14 48.5-2.1 12.1-2.4 47.5-.4 62.5 2.4 18.6 6.6 35.9 10.9 45 6 12.6 11.4 16.7 24.4 18 4.4.4 8.4 1.2 8.9 1.7 1.3 1.3 2 19.2.9 21.3-.7 1.3-2.7 2.1-6.6 2.6-10.5 1.3-12.3 5-12.4 25.4 0 9.7.3 12 2 14.7 2.1 3.4 6.7 5.3 13.2 5.3 2 0 3.8.6 4.1 1.2.8 2.7-.5 196.3-1.4 198-.5 1-2.1 1.8-3.5 1.8-3.2 0-10.4 3.3-12.7 5.7-1.4 1.6-1.7 4.3-1.8 17.9-.1 22.1-.3 21.2 3 24.5 2.4 2.4 3.8 2.9 7.8 2.9 8.2 0 7.8-1.4 7.5 28.3-.4 35 1 45.3 8.5 60 5.5 11 18.3 24.8 27.4 29.7 9 4.8 15.9 8 17.6 8 1 0 3.6.7 5.8 1.5 3.4 1.2 35.7 1.4 230 1.4l230-.9c14.8-3.4 18.2-4.6 27.8-10.5 10.7-6.4 20.7-17.6 26-29l2.6-5.5c.4-.8 1.9-4.9 3.2-9l2.4-7.5V599 386.5l-2.3-6.7c-8.5-24.5-25.4-41.8-48.8-49.8-4.9-1.7-8.4-2-23.8-2h-18.2l-7.9 5.6c-20.6 14.4-30.1 18.2-47 19.1-22.6 1.1-38.7-5.7-50-21l-2.7-3.7H451.4c-109.8 0-112.6 0-118.1-2-12.1-4.3-26.4-23.8-31.8-43.5-2.6-9.6-3.1-24.6-1-34 4.2-19.8 12-34.1 26-48 16.8-16.6 37.6-27.4 56-29.1 11.4-1 18.6 1.1 12.1 3.6-10.3 3.9-32.9 22.9-42.6 35.9-5.7 7.6-6.8 10.7-4.6 12.9 1.4 1.4 2.8 1.4 13.9-.1 19.9-2.8 25-3 35.4-1.8 9.8 1.2 19.3 3.6 19.3 5 0 .3-3 3.6-6.6 7.1-14.4 14.2-25 31.7-27 44.5-1.1 7.1.4 7.3 15.7 2 36.8-12.7 66.6-16.8 97.4-13.6 30.6 3.2 54.5 12.2 70.3 26.5 4.5 4.1 11.2 12.8 15.7 20.4 5.4 9.3 8 11.9 14.2 14.2 11.6 4.3 26.5 3.6 38.6-1.9 4.6-2.1 18.3-11.7 23.8-16.6 11.7-10.5 19.4-24.2 14.6-26-.7-.3-5 .9-9.7 2.6-19.6 7.2-30.3 3.3-56-20.6-5-4.5-19.8-14.1-26.7-17.1l-11.1-5c-2.9-1.3-5.6-2.4-6.1-2.4-.4 0-1.6-.9-2.6-2-1.6-1.8-1.7-2.3-.4-3.5 3.6-3.5 25.3-7 38.4-6 24.4 1.7 43.5 7.8 72.2 23 1.3.7 3.2 2.4 4.4 3.8 1.1 1.5 4.6 4.4 7.7 6.4 9.4 6.3 17.7 14.6 18.8 19 .5 2.2 1.6 3.9 2.6 4.1 4.2.8 23.8-21.6 29.6-34 9.1-19.6 7.9-44.4-3.3-67.8-9.4-19.8-11.3-22.5-14.3-21.6-2.3.8-6.6 7.8-10.3 16.6-3.4 8.3-3.7 8.5-10 6.5-6.4-2.1-26.5-9.9-32.9-12.7-2.5-1.2-7.9-3.6-12-5.5l-15.5-7.1c-4.4-2-9.7-4.7-11.7-5.9L620 152v-7.6c0-6.2-.6-8.9-3.1-15-5.4-12.9-15.9-21-35.7-27.4-31.6-10.3-51-19.9-71.7-35.4-14-10.5-31.3-25.7-47.1-41.4-5.2-5-10-9.2-10.9-9.2-1.9 0-4.3 4.6-5.1 9.9-.7 4.1.1 9.6 5.2 36.5 1.6 7.9 2.1 13.3 1.6 13.8-1.1 1.1-6-1.2-23.2-11.2l-12.6-7c-.4 0-10.3-6-18.9-11.4l-7-4.3c-6.3-3.8-15-9.5-22.5-14.7-20.5-14.5-21.3-14.8-24.9-9.7zm200 120c11.3 2.3 23.2 5.5 30.8 8.1 3 1.1 5.7 2 5.8 2 .7 0 .2 7.8-.7 11.1-1.5 5.2-5 8.1-10.8 8.7-6.7.6-9.5-1.1-18.9-11.4l-12.5-13.7c-2.6-2.7-4.5-5.4-4.2-5.8.7-1.1-.4-1.2 10.5 1zm165.7 81.7c2.9 2 2.8 5.6-.2 9.1-2.3 2.6-2.5 2.7-5.2 1.3-9.9-5-14.1-9-11.7-11.3 1.4-1.4 14.8-.7 17.1.9zm-3.3 155.6c4.6 2.5 8.5 6.8 10.8 11.8 1.8 4.2 2 7.3 2.6 44.5L720 640l-.5 168.5-2.1 4c-4.4 8.1-9.2 11.5-20.7 14.5-7 1.9-14 2-221.8 2-204.6 0-214.9-.1-221.5-1.8-13.1-3.5-22-11.3-24.4-21.4-1.5-6.7-1.3-58.3.3-59.6.7-.6 7.5-1.2 15.3-1.4 13.4-.3 14.3-.4 18.2-3.1 6.1-4 8.4-9.2 9-20.4.6-11.7-1.1-16.8-7.1-21.5l-4.1-3.3-14.6-.3c-8-.2-15.1-.9-15.7-1.4-1-.8-1.3-22.2-1.3-100.8 0-109-.4-102.2 5.6-100 4.4 1.7 14.9 1.2 20.8-1 7-2.7 10-5.1 13.3-10.8 2.3-3.9 2.7-5.8 2.7-11.7 0-11.3-5-18.9-15.9-23.8-3.2-1.5-6.1-1.8-14.7-1.6-6 .1-11.1-.1-11.5-.5-1.2-1.1-.6-42 .6-49.5 1.7-10.5 9.4-20.4 17.1-22 1.7-.3 105.1-.4 229.8-.1l229.7 2.2zM464 432.5c-28.8 3.3-58.1 14.9-81.5 32.4-3.3 2.4-11.6 10.1-18.5 17-23 23.1-37.5 49.1-44.8 80.2-2.6 11-3.1 15.7-3.7 31.9-1.2 33.9 6.4 63.5 24.1 93.7 15 25.6 42.2 50.6 69.4 63.6 9.5 4.6 13.4 6.1 24.5 9.8 13.6 4.5 13.1 4.4 32.5 7 9.8 1.3 39.2.7 46-.9l9-2.1c15.2-3.2 27-7.5 41.7-15.1 42.9-22.2 74.4-62.3 85.6-109 3.9-16.3 4.2-18.9 4.2-37.5 0-20.5-1.5-32.6-5.9-47.5l-2.6-8.5c-1.7-6.1-7.6-19.8-11-25.5-7.1-12.3-11.5-19-17.5-26.5-20.3-25.5-46.6-44.7-74.5-54.3-16.1-5.6-27.1-7.9-43.4-9.2-15.4-1.2-19.8-1.1-33.6.5zm2.8 70.2.2 29.2-3.7 1c-2.1.6-4.2 1.1-4.8 1.1-.5 0-3.3 1.2-6.2 2.7l-5.3 2.6-3.7-2.6c-2.1-1.5-11.6-10.2-21.1-19.4-13.5-13-17.2-17.2-16.7-18.5 1.6-4 22.5-15.7 35.2-19.8 3.7-1.2 7.7-2.6 8.8-3.1 2.4-1.1 12.2-2.8 15-2.6 1.9.2 2 1 2.3 29.4zm48.1-26.6c4.2 1.1 8.5 2.4 9.6 2.9s4.5 1.9 7.5 3.2c3 1.2 7.3 3.3 9.5 4.5l6 3.2c5.2 2.6 13 8.8 13 10.3 0 1-8.4 10.3-18.7 20.8L523 540l-7.7-3.9c-4.3-2.1-9-4.1-10.5-4.5-4.5-1-5.1-5.2-4.7-32 .5-28.8-.2-27.6 14.8-23.5zm-114.6 69.3c13.4 13.2 19.7 20.1 19.7 21.5 0 1.2-.7 3.8-1.6 5.9-4.5 10.5-5.7 16.7-5.8 28.2 0 12.1 1.1 17.3 6.1 27.1 1.2 2.6 2.3 5.2 2.3 5.8s-1.4 2.3-3.2 3.8l-19.6 18.8c-17.1 16.8-18.6 18-20.2 17-2.8-1.7-10.5-15.5-15.4-27.8-5.2-13-8.9-32-8.9-46.2-.1-9.9 3.2-28.8 6.5-38 4.6-12.8 16.9-35.5 19.2-35.5.6 0 10 8.8 20.9 19.4zm191.9-14.9c2.9 4.3 11.6 21.5 14.1 28 6.2 16.3 9.3 42.2 6.7 57l-1.9 11.5c-.7 4.3-1.4 6.8-4.9 17-3.6 10.8-12.7 27.7-16.6 30.9-1.4 1.2-4.2-1.2-22.4-19l-20.9-20.4c-.1-.1 1.4-4.8 3.4-10.6 3.5-9.9 3.7-11 3.7-23.9.1-14-.5-17.3-5-28.3-1.3-3.2-2.4-6.4-2.4-7 0-1.7 3.7-5.6 9-9.7 2.5-1.9 10.6-9.4 18-16.7 7.4-7.4 14.2-13.2 15-13.1.8.2 2.6 2.1 4.2 4.3zm-96.1 36.6c8.5 2.9 16 12.2 19.9 24.8 2.5 7.8 2.5 11.3.2 17.6-3.8 10.6-8.8 16.4-18.2 21.1-10.2 5.2-22.5 3.9-34.2-3.5-7.7-4.9-14.8-17.5-14.8-26.2 0-10.3 7.9-22.4 18.9-29.2 8.8-5.3 20.3-7.2 28.2-4.6zm48 113.6 18.3 19.1c.8 1.3-2.8 6.2-4.5 6.2-.5 0-2.7 1.3-5.1 2.9-13.4 9-38.5 18.5-47.3 17.9l-5-.3V697v-29.4l3-.7c3.2-.8 8.7-2.8 14.5-5.2 2.9-1.3 3.8-1.3 6-.2 1.4.8 10.4 9.4 20.1 19.2zm-93.7-18.2c1.1.8 2.8 1.5 3.9 1.5 1 0 4.3.7 7.3 1.6l5.4 1.6-.2 29.6-.3 29.7-4.9.3c-4.5.3-10.7-1.2-18.4-4.4-1.8-.8-3.8-1.4-4.3-1.4-2 0-25.3-11.7-29.6-14.9-2.4-1.7-4.3-3.7-4.3-4.4 0-2.2 40-40.7 42.2-40.7.7 0 2.2.7 3.2 1.5z"/></svg>